<svg width="500" height="500" viewBox="0 0 500 500" fill="none" xmlns="http://www.w3.org/2000/svg">
<path d="M400 62.5H100C79.375 62.5 62.5 79.375 62.5 100V437.5L137.5 362.5H400C420.625 362.5 437.5 345.625 437.5 325V100C437.5 79.375 420.625 62.5 400 62.5ZM400 325H122.5L100 347.5V100H400V325Z" fill="#6B35EC"/>
<path d="M345.25 205.438V204.438H344.25H156.75H155.75V205.438V219.5V220.5H156.75H344.25H345.25V219.5V205.438ZM271.007 125.267L271.007 125.266L270.996 125.27L250.499 132.102L229.909 125.27L229.85 125.25L229.79 125.238L229.359 125.152C223.905 123.63 218.158 126.514 216.1 131.76L216.098 131.766L193.317 191.016L192.794 192.375H194.25H306.75H308.208L307.683 191.015L284.808 131.765L284.777 131.684L284.732 131.61L284.481 131.191C282.195 126.174 276.446 123.522 271.007 125.267ZM297.938 227.875C280.413 227.875 265.677 240.119 261.427 256.569C253.168 253.338 245.562 254.114 239.567 256.473C235.231 239.939 220.494 227.875 203.062 227.875C182.153 227.875 165.125 245.117 165.125 266.375C165.125 287.633 182.153 304.875 203.062 304.875C222.76 304.875 238.822 289.513 240.582 269.932C243.796 267.794 251.26 264.41 260.425 270.142C262.376 289.612 278.242 304.875 297.938 304.875C318.847 304.875 335.875 287.633 335.875 266.375C335.875 245.117 318.847 227.875 297.938 227.875ZM203.062 292.188C189.008 292.188 177.719 280.654 177.719 266.375C177.719 252.099 189.1 240.562 203.062 240.562C217.117 240.562 228.406 252.096 228.406 266.375C228.406 280.654 217.117 292.188 203.062 292.188ZM297.938 292.188C283.883 292.188 272.594 280.654 272.594 266.375C272.594 252.096 283.883 240.562 297.938 240.562C311.996 240.562 323.375 252.101 323.375 266.375C323.375 280.647 311.905 292.188 297.938 292.188Z" fill="#1E1727" stroke="#6B35EC" stroke-width="2"/>
</svg>
